<svg width="36" height="40" viewBox="0 0 36 40" fill="none" xmlns="http://www.w3.org/2000/svg">
<rect width="13.2908" height="12.0234" transform="matrix(0.845984 0.533208 -0.747323 0.66446 8.98535 0)" fill="#BF00FF"/>
<g filter="url(#filter0_d_84_48)">
<rect width="13.2239" height="12.0896" transform="matrix(0.836595 0.547822 -0.759762 0.650202 9.2345 13.6922)" fill="#50DA76"/>
</g>
<rect width="13.2267" height="12.0868" transform="matrix(0.836992 0.547215 -0.759253 0.650796 24.9293 0.078125)" fill="#50DA76"/>
<rect width="13.1797" height="12.1331" transform="matrix(0.830235 0.557414 -0.767714 0.640793 24.9293 13.8787)" fill="#BF00FF"/>
<path d="M13.6046 32.548C13.6206 32.636 13.6566 32.692 13.7126 32.716C13.7766 32.74 13.8126 32.772 13.8206 32.812C13.8366 32.9 13.8566 32.972 13.8806 33.028C13.9126 33.084 13.9686 33.136 14.0486 33.184C14.1366 33.232 14.1886 33.296 14.2046 33.376C14.2206 33.448 14.2606 33.52 14.3246 33.592C14.3326 33.624 14.3326 33.668 14.3246 33.724C14.3246 33.78 14.3166 33.836 14.3006 33.892C14.2926 33.94 14.2806 33.988 14.2646 34.036C14.2486 34.084 14.2366 34.112 14.2286 34.12C14.2206 34.144 14.2126 34.168 14.2046 34.192C14.1966 34.216 14.1846 34.244 14.1686 34.276C14.1526 34.316 14.1286 34.368 14.0966 34.432C14.0726 34.488 14.0406 34.552 14.0006 34.624C13.8566 34.904 13.7366 35.084 13.6406 35.164C13.6326 35.18 13.5926 35.188 13.5206 35.188C13.4566 35.188 13.3846 35.192 13.3046 35.2C13.2246 35.208 13.1526 35.224 13.0886 35.248C13.0246 35.272 12.9926 35.316 12.9926 35.38C12.9366 35.396 12.9126 35.424 12.9206 35.464C12.9366 35.496 12.9606 35.532 12.9926 35.572C13.0326 35.612 13.0686 35.652 13.1006 35.692C13.1326 35.724 13.1406 35.744 13.1246 35.752C13.2606 35.784 13.4166 35.796 13.5926 35.788C13.7686 35.78 13.9126 35.776 14.0246 35.776C14.0726 35.864 14.1286 35.932 14.1926 35.98C14.2566 36.02 14.3526 36.04 14.4806 36.04L15.2006 36.916L15.1646 38.092L14.7806 38.572C14.5006 38.572 14.2486 38.704 14.0246 38.968L13.7006 39.364C13.6126 39.404 13.4966 39.432 13.3526 39.448C13.2086 39.456 12.9726 39.46 12.6446 39.46C12.4286 39.46 12.2166 39.456 12.0086 39.448C11.8086 39.44 11.6246 39.436 11.4566 39.436C11.2966 39.436 11.1646 39.44 11.0606 39.448C10.9646 39.448 10.9166 39.46 10.9166 39.484C10.7886 39.46 10.6926 39.452 10.6286 39.46C10.5646 39.468 10.5086 39.464 10.4606 39.448L9.24856 39.676L8.94856 39.424C8.95656 39.352 8.96856 39.268 8.98456 39.172C9.02456 39.044 9.04856 38.936 9.05656 38.848C9.07256 38.752 9.08056 38.672 9.08056 38.608C9.08056 38.592 9.07656 38.56 9.06856 38.512C9.06056 38.456 9.04456 38.412 9.02056 38.38L9.06856 37.648C9.19656 37.672 9.30856 37.648 9.40456 37.576L9.48856 37.336C9.42456 37.224 9.38056 37.14 9.35656 37.084C9.33256 37.02 9.26456 36.988 9.15256 36.988L9.08056 36.244C9.12056 36.236 9.14856 36.216 9.16456 36.184C9.18056 36.152 9.18856 36.12 9.18856 36.088L9.20056 35.992C9.21656 35.952 9.23256 35.928 9.24856 35.92C9.28856 35.808 9.32056 35.656 9.34456 35.464C9.36856 35.264 9.39256 35.028 9.41656 34.756C9.44856 34.476 9.46856 34.236 9.47656 34.036C9.49256 33.836 9.50056 33.712 9.50056 33.664C9.50056 33.656 9.48856 33.536 9.46456 33.304C9.44056 33.08 9.33256 32.908 9.14056 32.788V32.14C9.18056 32.076 9.30456 32.044 9.51256 32.044C9.56856 32.036 9.61656 32.032 9.65656 32.032C9.70456 32.032 9.74456 32.032 9.77656 32.032H9.89656C9.94456 32.032 10.0406 32.032 10.1846 32.032C10.3366 32.024 10.4686 32.008 10.5806 31.984C10.6046 31.968 10.6526 31.948 10.7246 31.924C10.7966 31.9 10.8406 31.888 10.8566 31.888L12.2366 31.924C12.2446 31.98 12.2686 32.032 12.3086 32.08C12.3566 32.12 12.4086 32.16 12.4646 32.2C12.5206 32.232 12.5726 32.26 12.6206 32.284C12.6766 32.308 12.7166 32.328 12.7406 32.344C12.8206 32.344 12.8886 32.348 12.9446 32.356C13.0006 32.356 13.0526 32.36 13.1006 32.368C13.1726 32.376 13.2846 32.376 13.4366 32.368L13.6046 32.548ZM10.8566 38.644L12.4526 38.776C12.5566 38.752 12.6446 38.728 12.7166 38.704C12.7966 38.68 12.8726 38.648 12.9446 38.608C13.0166 38.56 13.0926 38.496 13.1726 38.416C13.2606 38.336 13.3646 38.228 13.4846 38.092L13.7126 37.36L13.4126 36.472L11.7446 35.884L11.0966 35.872C10.9846 35.912 10.9046 35.992 10.8566 36.112C10.8086 36.224 10.7846 36.34 10.7846 36.46C10.7926 36.7 10.8086 36.808 10.8326 36.784C10.8406 36.816 10.8246 36.892 10.7846 37.012C10.7526 37.124 10.7326 37.284 10.7246 37.492C10.7166 37.596 10.7126 37.688 10.7126 37.768C10.7126 37.848 10.7126 37.916 10.7126 37.972V38.164L10.7006 38.416L10.8566 38.644ZM10.9886 32.992L11.0006 33.436L10.8326 33.712L10.9886 34.144V34.9L11.1686 35.092H11.4686C11.5566 35.084 11.6366 35.088 11.7086 35.104C11.7886 35.112 11.8366 35.116 11.8526 35.116C11.9406 35.116 12.0006 35.1 12.0326 35.068C12.0726 35.028 12.0966 35.008 12.1046 35.008C12.1286 35.008 12.1726 35.028 12.2366 35.068L12.4766 34.912C12.4606 34.84 12.4606 34.768 12.4766 34.696C12.4846 34.632 12.4966 34.568 12.5126 34.504C12.5286 34.432 12.5606 34.364 12.6086 34.3C12.6886 34.18 12.7406 34.092 12.7646 34.036C12.7966 33.972 12.8246 33.9 12.8486 33.82C12.8246 33.7 12.7886 33.604 12.7406 33.532C12.7006 33.452 12.6566 33.388 12.6086 33.34C12.5606 33.284 12.5166 33.236 12.4766 33.196C12.4446 33.156 12.4246 33.112 12.4166 33.064C12.3526 32.992 12.3046 32.912 12.2726 32.824C12.2406 32.736 12.2126 32.692 12.1886 32.692L11.7206 32.596L11.2286 32.704L10.9886 32.992ZM20.8523 32.896L20.0363 32.884L19.3643 33.112C19.3403 33.112 19.2603 33.24 19.1243 33.496C19.0683 33.624 19.0003 33.764 18.9203 33.916C18.8483 34.068 18.7963 34.164 18.7643 34.204L18.4883 36.004C18.4723 36.004 18.4163 36.14 18.3203 36.412C18.2803 36.548 18.2403 36.66 18.2003 36.748C18.1603 36.828 18.1283 36.892 18.1043 36.94C18.1043 36.996 18.1803 37.148 18.3323 37.396L18.6203 37.228L18.8843 37.744L18.7283 38.044C18.7523 38.084 18.7723 38.12 18.7883 38.152C18.8043 38.176 18.8203 38.2 18.8363 38.224L18.8723 38.296C18.8723 38.32 18.9203 38.384 19.0163 38.488C19.1043 38.6 19.1763 38.656 19.2323 38.656C19.3203 38.656 19.3843 38.64 19.4243 38.608C19.4723 38.576 19.5083 38.56 19.5323 38.56C19.5563 38.56 19.5843 38.576 19.6163 38.608C19.6483 38.632 19.6763 38.648 19.7003 38.656C20.0763 38.704 20.4043 38.62 20.6843 38.404C20.7723 38.388 20.8883 38.372 21.0323 38.356C21.1763 38.34 21.2963 38.28 21.3923 38.176C21.4243 38.168 21.4643 38.144 21.5123 38.104C21.5603 38.064 21.6123 38.02 21.6683 37.972C21.7243 37.916 21.7843 37.86 21.8483 37.804C21.9123 37.748 21.9803 37.7 22.0523 37.66C22.0923 37.636 22.1243 37.656 22.1483 37.72C22.1803 37.784 22.2123 37.808 22.2443 37.792L22.3643 37.936L22.1603 38.548L21.7043 38.908L21.0563 39.088C20.8563 39.152 20.6403 39.22 20.4083 39.292C20.1843 39.364 20.0203 39.408 19.9163 39.424C19.8283 39.432 19.7323 39.452 19.6283 39.484C19.5243 39.508 19.4243 39.536 19.3283 39.568C19.2323 39.592 19.1483 39.616 19.0763 39.64C19.0043 39.656 18.9603 39.664 18.9443 39.664C18.6403 39.664 18.4203 39.668 18.2843 39.676C18.1483 39.676 18.0483 39.676 17.9843 39.676L16.9043 38.884C16.8883 38.732 16.7683 38.492 16.5443 38.164C16.3283 37.868 16.2203 37.684 16.2203 37.612L16.3283 36.628C16.3523 36.46 16.3723 36.288 16.3883 36.112C16.4043 35.928 16.4163 35.76 16.4243 35.608C16.4323 35.456 16.4363 35.324 16.4363 35.212C16.4443 35.1 16.4483 35.032 16.4483 35.008C16.5123 34.976 16.6043 34.9 16.7243 34.78C16.8443 34.652 16.9523 34.476 17.0483 34.252C17.2483 33.836 17.3203 33.468 17.2643 33.148C17.3043 33.132 17.4163 33.104 17.6003 33.064C17.7843 33.024 17.9723 32.964 18.1643 32.884C18.3563 32.812 18.5043 32.756 18.6083 32.716C18.7123 32.676 18.7723 32.652 18.7883 32.644C18.7963 32.636 18.8283 32.624 18.8843 32.608C18.9483 32.592 19.0163 32.58 19.0883 32.572C19.1683 32.556 19.2443 32.544 19.3163 32.536C19.3883 32.52 19.4403 32.512 19.4723 32.512L19.8443 32.152L20.9243 32.14L21.1883 32.308L21.1163 32.692L20.8523 32.896ZM28.7179 33.412C28.6379 33.412 28.5459 33.412 28.4419 33.412C28.3379 33.404 28.2179 33.396 28.0819 33.388C27.8499 33.38 27.6379 33.376 27.4459 33.376C27.2539 33.368 27.1259 33.356 27.0619 33.34V34.252C26.9499 34.34 26.8699 34.516 26.8219 34.78C26.7579 35.572 26.7179 36.208 26.7019 36.688C26.6859 37.16 26.6819 37.528 26.6899 37.792C26.6979 37.952 26.7059 38.088 26.7139 38.2C26.7219 38.304 26.7339 38.388 26.7499 38.452L26.8819 39.088L26.8219 39.184L25.3699 39.508H25.3339C25.3179 39.508 25.2979 39.512 25.2739 39.52C25.2579 39.52 25.2419 39.52 25.2259 39.52L24.8299 39.244C24.8299 39.236 24.8339 39.232 24.8419 39.232C24.8499 39.224 24.8579 39.212 24.8659 39.196C24.8739 39.172 24.8819 39.136 24.8899 39.088C24.8979 39.032 24.9019 38.956 24.9019 38.86C24.9019 38.78 24.9019 38.724 24.9019 38.692C24.9099 38.66 24.9059 38.608 24.8899 38.536C24.8739 38.44 24.8739 38.224 24.8899 37.888C24.8979 37.552 24.8419 37.384 24.7219 37.384C24.7379 37.296 24.7459 37.192 24.7459 37.072C24.7539 36.952 24.7619 36.84 24.7699 36.736C24.7779 36.672 24.7819 36.612 24.7819 36.556C24.7819 36.492 24.7819 36.428 24.7819 36.364C24.7899 36.356 24.7939 36.348 24.7939 36.34C24.8019 36.332 24.8099 36.324 24.8179 36.316L24.8299 36.304C24.8699 36.24 24.8899 36.192 24.8899 36.16C24.8899 36.12 24.9059 36.032 24.9379 35.896V35.38C25.0899 35.404 25.1219 35.276 25.0339 34.996C24.9619 34.692 24.9499 34.54 24.9979 34.54C25.0219 34.436 25.0459 34.316 25.0699 34.18C25.0859 34.068 25.1019 33.948 25.1179 33.82C25.1339 33.684 25.1499 33.548 25.1659 33.412L25.1179 33.376C25.0619 33.424 24.9939 33.44 24.9139 33.424C24.8419 33.408 24.7739 33.396 24.7099 33.388C24.5259 33.412 24.3699 33.432 24.2419 33.448C24.1139 33.464 24.0099 33.492 23.9299 33.532C23.8819 33.548 23.8379 33.56 23.7979 33.568C23.7579 33.576 23.7379 33.632 23.7379 33.736L23.0539 33.88L22.8379 33.724C22.8059 33.644 22.7779 33.568 22.7539 33.496C22.7299 33.416 22.7139 33.32 22.7059 33.208L22.8499 32.86C22.9619 32.844 23.0499 32.836 23.1139 32.836C23.1859 32.836 23.2379 32.84 23.2699 32.848C23.3099 32.848 23.3379 32.852 23.3539 32.86C23.3699 32.868 23.3859 32.872 23.4019 32.872C23.4899 32.832 23.5819 32.796 23.6779 32.764C23.7739 32.724 23.8859 32.688 24.0139 32.656C24.1499 32.624 24.3059 32.596 24.4819 32.572C24.6659 32.54 24.8859 32.508 25.1419 32.476L26.2339 32.428L26.3539 32.524C26.3939 32.548 26.4379 32.572 26.4859 32.596C26.5339 32.612 26.5819 32.62 26.6299 32.62C26.6859 32.628 26.7379 32.608 26.7859 32.56C26.8019 32.544 26.8179 32.52 26.8339 32.488C26.8979 32.472 27.0019 32.472 27.1459 32.488C27.2979 32.496 27.5259 32.524 27.8299 32.572C28.3579 32.66 28.7059 32.708 28.8739 32.716L28.9459 32.836V33.232L28.7179 33.412Z" fill="#50DA76"/>
<defs>
<filter id="filter0_d_84_48" x="0.0493164" y="11.6922" width="34.2483" height="23.105" filterUnits="userSpaceOnUse" color-interpolation-filters="sRGB">
<feFlood flood-opacity="0" result="BackgroundImageFix"/>
<feColorMatrix in="SourceAlpha" type="matrix" values="0 0 0 0 0 0 0 0 0 0 0 0 0 0 0 0 0 0 127 0" result="hardAlpha"/>
<feOffset dx="10" dy="2"/>
<feGaussianBlur stdDeviation="2"/>
<feComposite in2="hardAlpha" operator="out"/>
<feColorMatrix type="matrix" values="0 0 0 0 0 0 0 0 0 0 0 0 0 0 0 0 0 0 0.25 0"/>
<feBlend mode="normal" in2="BackgroundImageFix" result="effect1_dropShadow_84_48"/>
<feBlend mode="normal" in="SourceGraphic" in2="effect1_dropShadow_84_48" result="shape"/>
</filter>
</defs>
</svg>
